<svg xmlns="http://www.w3.org/2000/svg" width="16" height="16" viewBox="0 0 16 16">
  <rect width="16" height="16" rx="1" fill="#0d0d0d"/>
  <!-- dome -->
  <rect x="4" y="1" width="8" height="1" fill="#cc2222"/>
  <rect x="2" y="2" width="12" height="1" fill="#cc2222"/>
  <rect x="1" y="3" width="14" height="1" fill="#cc2222"/>
  <rect x="1" y="4" width="14" height="1" fill="#cc2222"/>
  <!-- eyes -->
  <rect x="1" y="5" width="14" height="1" fill="#cc2222"/>
  <rect x="3" y="5" width="3" height="2" fill="#0d0d0d"/>
  <rect x="10" y="5" width="3" height="2" fill="#0d0d0d"/>
  <rect x="1" y="6" width="14" height="1" fill="#cc2222"/>
  <rect x="3" y="6" width="3" height="1" fill="#0d0d0d"/>
  <rect x="10" y="6" width="3" height="1" fill="#0d0d0d"/>
  <!-- nose -->
  <rect x="1" y="7" width="14" height="1" fill="#cc2222"/>
  <rect x="6" y="8" width="3" height="1" fill="#0d0d0d"/>
  <!-- mouth -->
  <rect x="1" y="9" width="14" height="1" fill="#cc2222"/>
  <rect x="2" y="10" width="2" height="1" fill="#0d0d0d"/>
  <rect x="6" y="10" width="2" height="1" fill="#0d0d0d"/>
  <rect x="10" y="10" width="2" height="1" fill="#0d0d0d"/>
  <rect x="2" y="11" width="12" height="1" fill="#cc2222"/>
</svg>
