<svg xmlns="http://www.w3.org/2000/svg" width="32" height="32" viewBox="0 0 32 32">
  <rect width="32" height="32" rx="2" fill="#0d0d0d"/>
  <!-- dome -->
  <rect x="8" y="2" width="16" height="2" fill="#cc2222"/>
  <rect x="4" y="4" width="24" height="2" fill="#cc2222"/>
  <rect x="2" y="6" width="28" height="2" fill="#cc2222"/>
  <rect x="2" y="8" width="28" height="2" fill="#cc2222"/>
  <!-- eyes -->
  <rect x="2" y="10" width="28" height="2" fill="#cc2222"/>
  <rect x="8" y="10" width="6" height="4" fill="#0d0d0d"/>
  <rect x="18" y="10" width="6" height="4" fill="#0d0d0d"/>
  <rect x="2" y="12" width="28" height="2" fill="#cc2222"/>
  <rect x="8" y="12" width="6" height="2" fill="#0d0d0d"/>
  <rect x="18" y="12" width="6" height="2" fill="#0d0d0d"/>
  <!-- nose -->
  <rect x="2" y="14" width="28" height="2" fill="#cc2222"/>
  <rect x="13" y="16" width="6" height="2" fill="#0d0d0d"/>
  <!-- mouth -->
  <rect x="2" y="18" width="28" height="2" fill="#cc2222"/>
  <rect x="4" y="20" width="4" height="2" fill="#0d0d0d"/>
  <rect x="10" y="20" width="4" height="2" fill="#0d0d0d"/>
  <rect x="16" y="20" width="4" height="2" fill="#0d0d0d"/>
  <rect x="22" y="20" width="4" height="2" fill="#0d0d0d"/>
  <rect x="4" y="22" width="24" height="2" fill="#cc2222"/>
</svg>
